<svg xmlns="http://www.w3.org/2000/svg" height="496pt" width="496pt" viewBox="-47 0 496 496.00009">
    <path d="m45.648438 43.980469v-.019531c0-19.890626 17.050781-36.011719 38.082031-36.011719h214.988281l1.261719 1.28125v77.519531c0 9.949219 8.53125 18.011719 19.050781 18.011719h74.707031l.589844.597656v310.652344c0 19.859375-16.988281 35.949219-37.976563 36.007812h-272.621093c-21.03125 0-38.082031-16.121093-38.082031-36.007812zm76.632812 64.710937v23.128906c.035156 13.632813 7.078125 26.292969 18.640625 33.519532v19.582031h-18.863281c-14.507813 0-26.265625 11.761719-26.269532 26.269531v16.410156h131.539063v-16.410156c.003906-14.511718-11.757813-26.273437-26.269531-26.269531h-18.957032v-20.589844c10.671876-7.390625 17.054688-19.53125 17.097657-32.511719v-38.71875h9.449219c0-14.515624-11.765626-26.277343-26.277344-26.28125h-27.042969c-2.921875-.007812-5.765625.96875-8.066406 2.769532l-.023438-.03125c-15.003906 5.636718-24.945312 19.984375-24.957031 36.011718zm0 0" fill="#3182ce"/>
    <path d="m299.980469 9.230469 93.757812 95.53125h-74.707031c-10.519531 0-19.050781-8.0625-19.050781-18.011719zm0 0" fill="#e53e3e"/>
    <path d="m356.351562 452.019531v.019531c0 19.890626-17.050781 36.011719-38.082031 36.011719h-272.507812c-21.042969 0-38.089844-16.121093-38.089844-36.011719v-372.050781c0-19.859375 16.988281-35.949219 37.976563-36.007812v372.03125c0 19.886719 17.050781 36.007812 38.082031 36.007812zm0 0" fill="#e53e3e"/>
    <path d="m182.101562 184.921875h18.957032c14.511718-.003906 26.273437 11.757813 26.269531 26.269531v16.410156h-66.316406v-29.550781zm0 0" fill="#e53e3e"/>
    <path d="m208.648438 93.101562h-53.320313c-.257813 0-.519531-.011718-.777344-.03125-5.164062-.304687-9.667969-3.609374-11.503906-8.445312s-.664063-10.300781 2.992187-13.953125c.386719-.386719.792969-.746094 1.222657-1.082031 2.300781-1.800782 5.144531-2.777344 8.066406-2.769532h27.042969c14.511718.003907 26.277344 11.765626 26.277344 26.28125zm0 0" fill="#2d3748"/>
    <path d="m182.101562 164.332031c-12.289062 8.550781-28.492187 8.945313-41.179687 1.007813-11.5625-7.226563-18.605469-19.886719-18.640625-33.519532v-23.128906c1.929688.238282 19.160156 1.890625 32.269531-15.589844v-.03125c.257813.019532.519531.03125.777344.03125h43.871094v38.71875c-.042969 12.980469-6.425781 25.121094-17.097657 32.511719zm0 0" fill="white"/>
    <path d="m182.101562 184.582031v.339844l-21.089843 13.128906-20.089844-13.128906v-19.582031c12.6875 7.9375 28.890625 7.542968 41.179687-1.007813zm0 0" fill="white"/>
    <path d="m140.921875 184.921875 20.089844 13.128906v29.550781h-65.222657v-16.410156c.003907-14.507812 11.761719-26.269531 26.269532-26.269531zm0 0" fill="#e53e3e"/>
    <path d="m154.550781 93.070312v.03125c-13.109375 17.480469-30.339843 15.828126-32.269531 15.589844v-3.121094c.011719-16.027343 9.953125-30.375 24.957031-36.011718l.023438.03125c-.429688.335937-.835938.695312-1.222657 1.082031-3.65625 3.652344-4.828124 9.117187-2.992187 13.953125s6.339844 8.140625 11.503906 8.445312zm0 0" fill="#2d3748"/>
    <g fill="#2d3748">
        <path d="m45.761719 496h272.507812c22.769531 0 41.554688-15.832031 45.25-36.589844 21.878907-3.417968 38.480469-21.582031 38.480469-43.398437v-310.652344c.0625-2.078125-.707031-4.09375-2.132812-5.609375l-.234376-.324219c-.152343-.167969-.273437-.332031-.4375-.488281l-92.722656-94.496094c-.484375-.679687-1.074218-1.28125-1.746094-1.78125l-.3125-.300781c-1.503906-1.519531-3.554687-2.3710938-5.695312-2.359375h-214.988281c-22.761719 0-41.546875 15.824219-45.25 36.585938-21.878907 3.414062-38.480469 21.585937-38.480469 43.402343v372.050781c0 24.269532 20.347656 43.960938 45.761719 43.960938zm262.238281-467.199219 66.679688 68.199219h-55.648438c-6.09375 0-11.03125-4.730469-11.03125-10.25zm-224.269531-12.800781h208.269531v70.75c0 14.34375 12.113281 26.25 27.03125 26.25h66.96875v303.011719c0 15.398437-13.128906 27.988281-29.648438 27.988281h-272.621093c-16.585938 0-29.730469-12.542969-29.730469-27.988281v-370.761719c0-.414062-.066406-.835938-.066406-1.269531-.03125-.355469-.085938-.707031-.167969-1.054688.601563-14.957031 13.757813-26.925781 29.964844-26.925781zm-67.730469 63.988281c0-12.8125 9-23.660156 22-26.96875v362.992188c0 24.265625 20.320312 43.988281 45.730469 43.988281h263.371093c-3.703124 12-15.222656 20-28.832031 20h-272.507812c-16.59375 0-29.761719-12.515625-29.761719-27.960938zm0 0"/>
        <path d="m95.789062 236h131.539063c4.417969 0 7.671875-3.980469 7.671875-8.398438v-16.410156c.0625-9.042968-3.488281-17.738281-9.859375-24.15625-6.371094-6.417968-15.039063-10.03125-24.082031-10.035156h-11.058594v-8.722656c1-1.042969 2.390625-2.144532 3.523438-3.308594 8.664062-8.855469 13.503906-20.757812 13.476562-33.148438v-30.820312h1.648438c2.109374.03125 4.140624-.78125 5.644531-2.257812 1.503906-1.476563 2.351562-3.496094 2.355469-5.601563-.03125-18.898437-15.382813-34.183594-34.277344-34.140625h-27.042969c-4.238281-.042969-8.394531 1.179688-11.9375 3.515625-17.636719 7.042969-29.257813 24.0625-29.390625 43.054687v26.25c.027344 14.851563 7.070312 28.816407 19 37.667969v7.511719h-10.941406c-9.054688 0-17.738282 3.605469-24.128906 10.023438-6.390626 6.414062-9.964844 15.109374-9.929688 24.167968v16.410156c0 4.417969 3.371094 8.398438 7.789062 8.398438zm53.210938-58.5625c3.824219 1.039062 7.765625 1.574219 11.730469 1.59375 4.5.023438 8.980469-.65625 13.269531-2.019531v3.464843l-12.898438 8.085938-12.101562-7.972656zm70 33.753906v8.808594h-50v-17.507812l15.386719-9.492188h16.671875c4.804687 0 9.402344 1.925781 12.773437 5.34375 3.375 3.417969 5.234375 8.046875 5.167969 12.847656zm-67.300781-134.863281c.140625-.140625.3125-.199219.5-.355469.910156-.660156 2.007812-1.003906 3.128906-.972656h27.042969c6.933594-.070312 13.308594 3.808594 16.433594 10h-43.476563c-.054687 0-.109375.046875-.164063.042969-.054687-.003907-.101562.019531-.152343.015625-2.707031-.15625-4.824219-2.398438-4.820313-5.113282-.007812-1.359374.539063-2.664062 1.507813-3.617187zm-10.707031 19.136719c-3.042969 2.25-6.515626 3.859375-10.203126 4.726562.789063-4.34375 2.511719-8.46875 5.046876-12.082031 1.175781 2.789063 2.929687 5.300781 5.15625 7.355469zm-10.992188 20.976562c11.070312-1.355468 21.207031-6.875 28.351562-15.441406h32.648438v30.820312c.035156 8.214844-3.160156 16.113282-8.898438 21.992188-1.402343 1.457031-2.941406 2.773438-4.59375 3.929688-4.929687 3.433593-10.792968 5.28125-16.800781 5.289062-5.554687-.007812-11-1.5625-15.722656-4.484375-9.234375-5.761719-14.886719-15.839844-14.984375-26.726563zm-26 94.75c-.039062-4.816406 1.847656-9.445312 5.238281-12.859375 3.390625-3.417969 8.007813-5.335937 12.820313-5.332031h16.480468l14.460938 9.378906v17.621094h-49zm0 0"/>
        <path d="m95.789062 284h131.539063c4.421875 0 8-3.582031 8-8s-3.578125-8-8-8h-131.539063c-4.417968 0-8 3.582031-8 8s3.582032 8 8 8zm0 0"/>
        <path d="m95.789062 323h228.921876c4.417968 0 8-3.582031 8-8s-3.582032-8-8-8h-228.921876c-4.417968 0-8 3.582031-8 8s3.582032 8 8 8zm0 0"/>
        <path d="m95.789062 362h228.921876c4.417968 0 8-3.582031 8-8s-3.582032-8-8-8h-228.921876c-4.417968 0-8 3.582031-8 8s3.582032 8 8 8zm0 0"/>
        <path d="m95.789062 401h228.921876c4.417968 0 8-3.582031 8-8s-3.582032-8-8-8h-228.921876c-4.417968 0-8 3.582031-8 8s3.582032 8 8 8zm0 0"/>
    </g>
</svg>