<svg xmlns="http://www.w3.org/2000/svg" height="472pt" viewBox="0 -37 472 472" width="472pt">
    <path d="m163.609375 186.289062-26.398437-42.910156-26.390626 42.910156.140626 122.980469.027343 23.160157c0 14.480468 11.742188 26.21875 26.222657 26.21875 14.480468 0 26.21875-11.738282 26.21875-26.21875l.03125-23.160157zm300.390625-81.019531v252.191407c0 18.21875-14.078125 32.988281-31.449219 32.988281h-393.101562c-17.371094 0-31.449219-14.769531-31.449219-32.988281v-252.191407zm-102.820312 253.351563v-174.339844l-45.691407-45.703125h-122.789062v220.042969zm0 0" fill="#4299e1"/>
    <path d="m464 40.539062v64.730469h-456v-64.730469c0-18.21875 14.078125-32.988281 31.449219-32.988281h393.101562c17.371094 0 31.449219 14.769531 31.449219 32.988281zm-251.589844 16.5c0-12.148437-9.378906-22-20.960937-22-11.578125 0-20.96875 9.851563-20.96875 22 0 12.152344 9.390625 21.992188 20.96875 21.992188 11.582031 0 20.960937-9.851562 20.960937-21.992188zm-68.128906 0c0-12.148437-9.390625-22-20.972656-22-11.578125 0-20.96875 9.851563-20.96875 22 0 12.152344 9.390625 21.992188 20.96875 21.992188 11.582031 0 20.972656-9.851562 20.972656-21.992188zm-68.140625 0c0-12.148437-9.390625-22-20.96875-22-11.582031 0-20.960937 9.851563-20.960937 22 0 12.152344 9.378906 21.992188 20.960937 21.992188 11.578125 0 20.96875-9.851562 20.96875-21.992188zm0 0" fill="#a0aec0"/>
    <path d="m361.179688 184.28125v174.339844h-168.480469v-220.042969h122.789062v45.703125zm0 0" fill="#e53e3e"/>
    <path d="m315.488281 138.578125 45.691407 45.703125h-45.691407zm0 0" fill="#a0aec0"/>
    <path d="m191.449219 35.039062c11.582031 0 20.960937 9.851563 20.960937 22 0 12.152344-9.378906 21.992188-20.960937 21.992188-11.578125 0-20.96875-9.851562-20.96875-21.992188 0-12.140624 9.390625-22 20.96875-22zm0 0" fill="#4299e1"/>
    <path d="m137.210938 143.378906 26.398437 42.910156h-52.789063zm0 0" fill="#e53e3e"/>
    <path d="m163.609375 186.289062-.148437 122.980469h-52.5l-.140626-122.980469zm0 0" fill="#a0aec0"/>
    <path d="m163.460938 309.269531-.03125 23.160157c0 14.480468-11.738282 26.21875-26.21875 26.21875-14.480469 0-26.222657-11.738282-26.222657-26.21875l-.027343-23.160157zm0 0" fill="#e53e3e"/>
    <path d="m123.308594 35.039062c11.582031 0 20.972656 9.851563 20.972656 22 0 12.152344-9.390625 21.992188-20.972656 21.992188-11.578125 0-20.96875-9.851562-20.96875-21.992188 0-12.140624 9.390625-22 20.96875-22zm0 0" fill="#4299e1"/>
    <path d="m55.171875 35.039062c11.578125 0 20.96875 9.851563 20.96875 22 0 12.152344-9.390625 21.992188-20.96875 21.992188-11.582031 0-20.960937-9.851562-20.960937-21.992188 0-12.140624 9.378906-22 20.960937-22zm0 0" fill="#4299e1"/>
    <g fill="#2d3748">
        <path d="m432.550781 0h-393.101562c-21.75 0-39.449219 17.9375-39.449219 40.539062v316.921876c0 22.601562 17.699219 40.539062 39.449219 40.539062h393.101562c21.75 0 39.449219-17.9375 39.449219-40.539062v-316.921876c0-22.601562-17.699219-40.539062-39.449219-40.539062zm23.449219 357.460938c0 13.777343-10.519531 24.539062-23.449219 24.539062h-393.101562c-12.929688 0-23.449219-10.761719-23.449219-24.539062v-244.460938h440zm0-260.460938h-440v-56.460938c0-13.777343 10.519531-24.539062 23.449219-24.539062h393.101562c12.929688 0 23.449219 10.761719 23.449219 24.539062zm0 0"/>
        <path d="m123.308594 27.039062c-15.972656 0-28.96875 13.457032-28.96875 30 0 16.542969 13 29.992188 28.96875 29.992188 15.972656 0 28.972656-13.453125 28.972656-29.992188 0-16.535156-12.996094-30-28.972656-30zm0 43.992188c-7.152344 0-12.96875-6.277344-12.96875-13.992188 0-7.714843 5.816406-14 12.96875-14s12.972656 6.28125 12.972656 14c0 7.722657-5.820312 13.992188-12.972656 13.992188zm0 0"/>
        <path d="m191.449219 27.039062c-15.972657 0-28.96875 13.457032-28.96875 30 0 16.542969 13 29.992188 28.96875 29.992188 15.972656 0 28.960937-13.453125 28.960937-29.992188 0-16.535156-12.992187-30-28.960937-30zm0 43.992188c-7.152344 0-12.96875-6.277344-12.96875-13.992188 0-7.714843 5.816406-14 12.96875-14 7.152343 0 12.960937 6.28125 12.960937 14 0 7.722657-5.808594 13.992188-12.960937 13.992188zm0 0"/>
        <path d="m55.171875 27.039062c-15.972656 0-28.960937 13.457032-28.960937 30 0 16.542969 12.988281 29.992188 28.960937 29.992188 15.96875 0 28.96875-13.453125 28.96875-29.992188 0-16.535156-12.996094-30-28.96875-30zm0 43.992188c-7.148437 0-12.960937-6.277344-12.960937-13.992188 0-7.714843 5.8125-14 12.960937-14 7.144531 0 12.96875 6.28125 12.96875 14 0 7.722657-5.820313 13.992188-12.96875 13.992188zm0 0"/>
        <path d="m192.699219 367h168.480469c4.417968 0 7.820312-3.960938 7.820312-8.378906v-174.339844c.035156-2.113281-.777344-4.148438-2.253906-5.65625l-45.644532-45.492188c-1.507812-1.441406-3.53125-2.210937-5.613281-2.132812h-122.789062c-2.042969-.082031-4.035157.683594-5.492188 2.121094-1.460937 1.433594-2.257812 3.414062-2.207031 5.457031v220.042969c0 4.417968 3.28125 8.378906 7.699219 8.378906zm130.300781-209.101562 18.867188 18.101562h-18.867188zm-122-10.898438h106v37.28125c0 4.417969 4.070312 7.71875 8.488281 7.71875h37.511719v159h-152zm0 0"/>
        <path d="m233.480469 239h43.789062c4.417969 0 8-3.582031 8-8s-3.582031-8-8-8h-43.789062c-4.417969 0-8 3.582031-8 8s3.582031 8 8 8zm0 0"/>
        <path d="m320.398438 249h-86.917969c-4.417969 0-8 3.582031-8 8s3.582031 8 8 8h86.917969c4.417968 0 8-3.582031 8-8s-3.582032-8-8-8zm0 0"/>
        <path d="m320.398438 275h-86.917969c-4.417969 0-8 3.582031-8 8s3.582031 8 8 8h86.917969c4.417968 0 8-3.582031 8-8s-3.582032-8-8-8zm0 0"/>
        <path d="m320.398438 301h-86.917969c-4.417969 0-8 3.582031-8 8s3.582031 8 8 8h86.917969c4.417968 0 8-3.582031 8-8s-3.582032-8-8-8zm0 0"/>
        <path d="m113.023438 356.605469c9.78125 9.777343 24.488281 12.703125 37.269531 7.414062 12.78125-5.285156 21.121093-17.75 21.136719-31.578125l.179687-146.140625c.003906-1.484375-.410156-2.9375-1.183594-4.199219l-26.402343-42.910156c-1.457032-2.367187-4.035157-3.808594-6.8125-3.808594-2.78125 0-5.359376 1.441407-6.816407 3.808594l-26.386719 42.910156c-.777343 1.261719-1.191406 2.714844-1.1875 4.199219l.167969 146.140625c-.007812 9.070313 3.601563 17.769532 10.035157 24.164063zm42.40625-24.316407c-.011719 10.074219-8.144532 18.257813-18.21875 18.332032-4.832032.015625-9.464844-1.902344-12.875-5.328125-3.429688-3.460938-5.351563-8.136719-5.347657-13.007813l-.015625-15.285156h36.476563zm-18.21875-173.929687 12.089843 19.640625h-24.167969zm18.390624 35.640625-.132812 107h-36.515625l-.125-107zm0 0"/>
    </g>
</svg>