<svg xmlns="http://www.w3.org/2000/svg" height="488pt" viewBox="0 -21 488.0008 488" width="488pt">
    <path d="m480.308594 366.320312v31.199219c.003906 22.410157-18.160156 40.574219-40.566406 40.570313h-391.480469c-22.410157.003906-40.574219-18.160156-40.570313-40.570313v-31.199219h176.789063l8.238281 8.941407c7.683594 8.332031 18.5 13.070312 29.832031 13.070312h42.898438c11.332031 0 22.148437-4.738281 29.832031-13.070312l8.238281-8.941407zm0 0" fill="#e53e3e"/>
    <path d="m458.878906 366.269531v.050781h-155.359375l-8.238281 8.941407c-7.683594 8.332031-18.5 13.070312-29.832031 13.070312h-42.898438c-11.332031 0-22.148437-4.738281-29.832031-13.070312l-8.238281-8.941407h-155.359375v-256.019531c0-22.40625 18.164062-40.570312 40.570312-40.570312h166.257813v28.121093c-.003907 5.992188 3.054687 11.570313 8.109375 14.789063h-36.558594l-.160156.109375c-7.777344-11.621094-20.835938-18.609375-34.820313-18.628906-13.984375-.023438-27.0625 6.921875-34.878906 18.519531h-68.480469v216.328125h349.679688v-216.328125h-32.898438l-.039062-.058594c5.003906-3.226562 8.023437-8.777343 8.019531-14.730469v-28.121093h24.386719c22.40625 0 40.570312 18.164062 40.570312 40.570312zm0 0" fill="#a0aec0"/>
    <path d="m418.839844 112.640625v216.328125h-349.679688v-216.328125h68.480469c-11.796875 17.492187-8.777344 41.023437 7.050781 54.972656s39.550782 13.988281 55.421875.085938c15.875-13.898438 18.964844-37.417969 7.226563-54.949219l.160156-.109375h36.558594c2.820312 1.808594 6.101562 2.765625 9.453125 2.761719h15.730469l-13.960938 36.5 52.929688-36.5h68.160156c3.382812.007812 6.695312-.972656 9.53125-2.820313l.039062.058594zm-168 181.640625v-74.179688c-.003906-20.867187-16.914063-37.78125-37.78125-37.792968-9.492188 12.921875-24.570313 20.554687-40.601563 20.554687-16.035156 0-31.113281-7.632812-40.605469-20.554687-20.863281.011718-37.773437 16.929687-37.769531 37.792968v74.179688zm0 0" fill="#4299e1"/>
    <path d="m244.058594 112.640625c-5.054688-3.21875-8.113282-8.796875-8.109375-14.789063v-72.382812c0-9.695312 7.863281-17.558594 17.5625-17.558594h122.859375c9.695312.003906 17.550781 7.863282 17.550781 17.558594v72.382812c-.011719 9.6875-7.863281 17.539063-17.550781 17.550782h-68.160156l-52.929688 36.5 13.960938-36.5h-15.730469c-3.351563.003906-6.632813-.953125-9.453125-2.761719zm0 0" fill="#e53e3e"/>
    <path d="m250.839844 220.101562v74.179688h-156.757813v-74.179688c-.003906-20.863281 16.90625-37.78125 37.769531-37.792968 9.492188 12.921875 24.570313 20.554687 40.605469 20.554687 16.03125 0 31.109375-7.632812 40.601563-20.554687 20.867187.011718 37.777344 16.925781 37.78125 37.792968zm0 0" fill="#a0aec0"/>
    <path d="m207.339844 112.75c10.714844 16.007812 9.160156 37.25-3.765625 51.527344s-33.910157 17.925781-50.898438 8.851562c-16.988281-9.074218-25.625-28.542968-20.945312-47.226562 4.679687-18.683594 21.46875-31.785156 40.730469-31.78125 14.019531-.046875 27.121093 6.953125 34.878906 18.628906zm0 0" fill="#a0aec0"/>
    <g fill="#2d3748">
        <path d="m480.308594 358h-13.308594v-247.699219c-.109375-26.78125-21.90625-48.40625-48.691406-48.300781h-16.308594v-36.53125c-.058594-14.101562-11.523438-25.5-25.628906-25.46875h-122.859375c-6.761719-.0117188-13.253907 2.667969-18.039063 7.445312-4.785156 4.777344-7.472656 11.261719-7.472656 18.023438v36.53125h-158.308594c-26.78125-.105469-48.582031 21.519531-48.691406 48.300781v247.699219h-13.308594c-4.417968 0-7.691406 3.902344-7.691406 8.320312v31.199219c-.0507812 12.835938 5.007812 25.164063 14.066406 34.261719 9.054688 9.097656 21.359375 14.214844 34.195313 14.21875h391.480469c12.832031-.003906 25.136718-5.121094 34.195312-14.21875 9.054688-9.097656 14.113281-21.425781 14.0625-34.261719v-31.199219c0-4.417968-3.273438-8.320312-7.691406-8.320312zm-236.308594-332.53125c-.003906-2.519531.996094-4.9375 2.78125-6.714844s4.210938-2.769531 6.730469-2.753906h122.859375c5.273437-.039062 9.582031 4.199219 9.628906 9.46875v72.382812c-.007812 3.242188-1.664062 6.261719-4.398438 8.007813-.011718.007813-.042968-.183594-.054687-.175781-1.558594.933594-3.359375 1.394531-5.175781 1.316406h-68.160156c-1.640626.074219-3.222657.632812-4.542969 1.613281l-31.707031 21.964844 4.75-12.371094c.941406-2.515625.613281-5.332031-.878907-7.566406-1.476562-2.214844-3.933593-3.570313-6.589843-3.640625h-15.730469c-1.800781.074219-3.582031-.378906-5.125-1.304688-2.738281-1.664062-4.402344-4.640624-4.386719-7.84375zm-2.011719 95.53125c3.730469 1.1875 7.609375 1.863281 11.523438 2h4.105469l-9.808594 25.84375c-1.25 3.304688-.230469 7.039062 2.527344 9.246094 1.40625 1.125 3.148437 1.742187 4.945312 1.761718 1.636719-.066406 3.21875-.617187 4.542969-1.589843l50.875-35.261719h65.671875c3.910156-.136719 7.785156-.808594 11.515625-2h23.113281v200h-334v-200h47.917969c-1.621094 4.933594-2.445313 10.097656-2.449219 15.289062 0 27.605469 22.378906 49.988282 49.988281 49.988282 27.605469 0 49.984375-22.382813 49.984375-49.988282-.003906-5.191406-.828125-10.355468-2.449218-15.289062zm-103.519531 15.109375c-.011719-6.765625 2.007812-13.382813 5.800781-18.988281 9.40625-13.960938 27.613281-18.933594 42.8125-11.695313 15.195313 7.242188 22.804688 24.515625 17.886719 40.613281-4.914062 16.101563-20.875 26.175782-37.527344 23.691407-16.648437-2.484375-28.96875-16.78125-28.972656-33.617188zm-101.46875-25.808594c.097656-17.949219 14.742188-32.417969 32.691406-32.300781h158.308594v19.851562c.03125 2.40625.324219 4.804688.867188 7.148438h-17.605469c-9.476563-11.714844-23.738281-18.519531-38.808594-18.519531-15.066406 0-29.328125 6.804687-38.804687 18.519531h-64.488282c-4.417968 0-8.160156 3.222656-8.160156 7.640625v216.328125c.074219 4.457031 3.703125 8.03125 8.160156 8.03125h349.679688c4.457031 0 8.089844-3.574219 8.160156-8.03125v-216.328125c0-4.417969-3.742188-7.640625-8.160156-7.640625h-17.839844c.582031-2.339844.917969-4.738281 1-7.148438v-19.851562h16.308594c17.953125-.117188 32.59375 14.351562 32.691406 32.300781v247.699219h-147.480469c-2.253906.058594-4.382812 1.050781-5.882812 2.738281l-8.238281 8.855469c-6.183594 6.65625-14.863282 10.425781-23.949219 10.40625h-42.898438c-9.074219.050781-17.757812-3.691406-23.949219-10.328125l-8.242187-9.015625c-1.503906-1.664062-3.636719-2.625-5.878906-2.65625h-147.480469zm435 287.21875c.058594 8.59375-3.316406 16.855469-9.371094 22.953125-6.058594 6.097656-14.296875 9.527344-22.886718 9.527344h-391.480469c-8.59375 0-16.832031-3.429688-22.886719-9.527344-6.058594-6.097656-9.429688-14.359375-9.375-22.953125v-23.519531h164.972656l5.867188 6.359375c9.207031 9.957031 22.148437 15.628906 35.710937 15.640625h42.898438c13.566406-.011719 26.507812-5.683594 35.714843-15.644531l5.863282-6.355469h164.972656zm0 0"/>
        <path d="m213.058594 174c-2.570313.0625-4.960938 1.332031-6.453125 3.425781-7.941407 10.9375-20.644531 17.40625-34.160157 17.398438-13.515624-.003907-26.210937-6.480469-34.144531-17.421875-1.492187-2.089844-3.882812-3.347656-6.449219-3.402344-25.242187 0-45.851562 20.863281-45.851562 46.101562v74.179688c.03125 2.101562.902344 4.101562 2.421875 5.554688 1.519531 1.449218 3.558594 2.230468 5.660156 2.164062h156.757813c2.109375.070312 4.160156-.707031 5.691406-2.15625 1.535156-1.449219 2.421875-3.453125 2.46875-5.5625v-74.179688c-.078125-25.363281-20.574219-45.933593-45.9375-46.101562zm3.753906 16.539062c14.917969 1.871094 26.128906 14.527344 26.1875 29.5625v65.898438h-141v-65.898438c.039062-15.023437 11.226562-27.683593 26.132812-29.5625 11.152344 12.847657 27.328126 20.226563 44.339844 20.226563 17.011719 0 33.1875-7.378906 44.339844-20.226563zm0 0"/>
        <path d="m274.46875 54h36.960938c4.417968 0 8-3.582031 8-8s-3.582032-8-8-8h-36.960938c-4.417969 0-8 3.582031-8 8s3.582031 8 8 8zm0 0"/>
        <path d="m274.46875 82h80.941406c4.417969 0 8-3.582031 8-8s-3.582031-8-8-8h-80.941406c-4.417969 0-8 3.582031-8 8s3.582031 8 8 8zm0 0"/>
    </g>
</svg>